<svg xmlns="http://www.w3.org/2000/svg" viewBox="0 0 98.1 118" width="98.1" height="118"><path fill="#ff3e00" d="M91.8 15.6C80.9-.1 59.2-4.7 43.6 4.2L16.1 20a30.5 30.5 0 0 0-14 20.2 30.1 30.1 0 0 0 3 19.4A30 30 0 0 0 .6 74.2a30.6 30.6 0 0 0 5.5 22.4c11 15.7 32.6 20.3 48.2 11.4l27.5-15.8a30.5 30.5 0 0 0 14-20.2 30.1 30.1 0 0 0-3-19.4A30 30 0 0 0 97.4 38a30.6 30.6 0 0 0-5.5-22.4"/><path fill="#fff" d="M40.9 103.9a20.4 20.4 0 0 1-22-8.1 19 19 0 0 1-3.4-14 18.4 18.4 0 0 1 .6-2.6l.5-1.6 1.4 1a34 34 0 0 0 10.3 5.2l1 .3-.1 1a5.8 5.8 0 0 0 1 3.8 6.3 6.3 0 0 0 6.8 2.5 5.7 5.7 0 0 0 1.6-.7L66.1 75a5.6 5.6 0 0 0 2.5-3.7 5.9 5.9 0 0 0-1-4.4 6.3 6.3 0 0 0-6.8-2.5 5.7 5.7 0 0 0-1.6.7l-10.5 6.7a19 19 0 0 1-5.4 2.3 20.4 20.4 0 0 1-22-8.1 19 19 0 0 1-3.4-14 18 18 0 0 1 8.3-12L53.6 24a19 19 0 0 1 5.4-2.3 20.4 20.4 0 0 1 22 8.1 19 19 0 0 1 3.4 14 18.4 18.4 0 0 1-.6 2.6l-.5 1.6-1.4-1a34 34 0 0 0-10.3-5.2l-1-.3.1-1a5.8 5.8 0 0 0-1-3.8 6.3 6.3 0 0 0-6.8-2.5 5.7 5.7 0 0 0-1.6.7L32 50.7A5.5 5.5 0 0 0 29.5 54a5.9 5.9 0 0 0 1 4.4 6.3 6.3 0 0 0 6.8 2.5 5.7 5.7 0 0 0 1.6-.7l10.5-6.7a19 19 0 0 1 5.4-2.3 20.4 20.4 0 0 1 22 8.1 19 19 0 0 1 3.4 14 18 18 0 0 1-8.3 12L46.3 101.6a19 19 0 0 1-5.4 2.3"/></svg>
